<svg xmlns="http://www.w3.org/2000/svg" viewBox="0 0 127.3 158.7"><style>.st4{fill:#dc9b73}.st8{fill:#171570}.st9{fill:#f2f2f7}.st10{fill:#1e1e1e}.st12{fill:#6c5dda}</style><g id="Layer_1"><path d="M76.8 15c0 .2.1.4.2.6.1.2.4 1.3.6 2.7.1.8.1 1.6-.1 2.4-.5 2.5-2.2 5.4-1.8 6.3.7 1.4 1.7 3.9 2.1 4.5.1.1 1 1.9 1.4 3.3.4 1.3.8 3.4.8 3.5.5 1 1.2 4.8 1.7 5.8C85 50.2 71.2 54 68 54.1c-2.3.1-14.1-.2-19.5-4.9C46 47 49.4 40.1 51 32c.2-1.2 1.3-3.4 1.4-4.6.2-2.1-.7-3.7-1.2-5.6-.2-.9.1-1.8 0-2.8-.1-1.3-.5-2.6-.3-4.1.1-1.1.5-2 .8-3 .3-1.1.6-2.5 1.1-3.5.7-1.3 1.4-2 2.4-3C55.7 5 56.4 4 57 3.6c1.1-.8 2.7-.9 4.2-1.1.8-.1 1.6-.5 2.6-.5 1.3 0 3.2.4 4.3.8 1 .3 1.8 1.3 2.7 1.8 1.2.8 1.8 1.6 2.7 2.8.9 1.1 1.9 2.1 2.5 3.5.6 1.3.5 2.7.8 4.1z" fill="#2c244a"/><path fill="#d38b67" d="M56.7 44.1v-9.3h14.4l.3 14H56.7z"/><path d="M56.4 41.3c-.4-.6-1.2-.9-1.8-.6-4.3 1.5-18.2 7.4-18.2 8.1 0 0-.8 8.8.6 17 .9 5.1 7.1 5.5 8.3 5.7 0 0 26.2 1 39.9-.4 5.6-.6 8-5.9 7.9-8.6V48.7l-20.5-8.4c-.6-.2-1.2 0-1.4.6L70 43.8c-.3.6-.7 1.2-1.3 1.7l-.8.5c-1.9 1.4-5.5 1.6-7.4.2l-1.1-.7c-1.6-1-1.9-2.5-3-4.2z" fill="#e7def2"/><path d="M56.8 29.2l-3.9-.2c-.9 0-1.7-.9-1.6-1.8 0-.9.9-1.7 1.8-1.6l3.9.2c.9 0 1.7.9 1.6 1.8-.1.9-.9 1.6-1.8 1.6zm18.2-.7l-3.9.4c-.9.1-1.8-.6-1.9-1.5-.1-.9.6-1.8 1.5-1.9l3.9-.4c.9-.1 1.8.6 1.9 1.5.1.9-.6 1.8-1.5 1.9z" fill="#f57b55"/><path class="st4" d="M55.8 34.3c-.4-.6-.9-1.4-1.2-2.2-.3-1-.6-2.6-.8-4.4-.1-1.6.5-10.2 4-12.4 3.2-1.9 6 .9 6 .9.6.4 1.3.8 1.9 1l2.7.9c1.2.4 2.3 1.2 3.2 2.1l.4.4c.6.6 1 1.4 1.2 2.2.4 1.1.8 2.7.8 4.2 0 2.9-.7 4.1-1.2 6.2-.1.6-1.2 2.9-1.2 2.9-.6 1.1-1.2 2.1-2.2 2.8l-.6.4c-.5.4-.9.6-1.5.9l-1.3.4c-1.4.4-2.7.1-4.2-.4-.7-.3-1.7-.8-2.4-1.4-.6-.4-1.2-.9-1.4-1.2-.8-1.2-1.7-2.6-2.2-3.3z"/><path d="M6 49.7c0-2.4 2-4.4 4.5-4.2l24.3 1.2 23.7 1.2 2.6.8c2.1.6 4.2.6 6.3 0l2.6-.8 23.8-1.2 24.5-1.2c2.3-.1 4.2 1.7 4.2 4V105c0 2.9-2.2 5.3-5.1 5.5l-47.1 4.2-.6.3c-3.2 1.5-6.9 1.5-10.1.1l-.8-.4-48.9-3.8c-2.2-.2-3.9-2-3.9-4.2v-57z" fill="#f1f0f2"/><path fill="#121251" d="M49.7 115.3l18.6 10.6 17-12.3z"/><ellipse cx="64.7" cy="127.3" rx="59.7" ry="11.8" opacity=".09" fill="#171570"/><path class="st4" d="M70.4 125.3l-6.2-.7-.5 8.2 2.1.8c1.6-.1 3.3 1.8 4.4 3l1.4 1.5 4.8-5.9-1.2-4.1-4.8-2.8z"/><path class="st8" d="M64.6 134.3c-5-1.4-21.9-9.2-21.9-9.2-7.8-3.1-11.4-6-17.7-11.7l-6-5.5c-2.9-2.6-3.3-7.1-1-10.2l3.6-4.8 28.7 18.8c2 1.3 12.4 8.1 16.8 11.1 4 2.7.5 12.3-2.5 11.5z"/><path class="st9" d="M73.5 132.8l-2.9.9c-1 .4-2.4 1.7-2.1 2.8.1.6.4 1.1.8 1.5l1.4 1.4c.6.6 1.1 1.4 1.3 2.3l.5 1.2s1.5 3.3 2.4 5c.7 1.3 2.3 4.7 3.3 5.2 2 .9 5.3 1 6.7-3.8 1.5-4.8-2.4-12.1-2.4-12.1l-.6-2.2-3.5-7.1c-.5-1-1.5-1.6-2.5-2.1-.7-.4-1.4-.8-2.3-.8-.7-.3-1.4-.4-2.1-.3 0 0-2.3.9-2 1 .3.2 1.4.5 1.7.7 1.3.8 2.8 1.9 3.5 2.9 1 1.4.4 3.2-1.2 3.5z"/><path class="st10" d="M84.4 149.8c-1.1.7-2.2 1-2.9 1.6-.9.9-1 1.8-2.3 1.9 2.1.4 5.3.6 6.7-4.1.5-1.7.4-4.9-.6-7.7-.7-1.9-3-5-3.7-6.8-.6-1.5-1-3.9-2.2-6.3-2-4-3.6-3.8-5.4-3.8-1.4 0-2.7.1-2.7.1H71c2.4 2 4.2.8 5.5 2.1 2.1 2.1 2.9 6.5 3.8 8.6.6 1.5 3.7 5.7 4.1 7.1 1 3.6.8 6.7 0 7.3z"/><path class="st10" d="M73.4 132.9l-2.9.9c-1 .4-2.4 1.7-2.1 2.8.1.6.4 1.1.8 1.5l1.4 1.4c1.9 1.7 2.1 7.6 5.3 3.4 2.6-3.5-1.7-10.2-2.5-10z"/><path class="st4" d="M61.5 127.9l6.2-.7.5 8.2-2.1.8c-1.6-.1-3.3 1.8-4.4 3l-1.4 1.5-4.8-5.9 1.2-4.1 4.8-2.8z"/><path class="st8" d="M67.3 136.8c5-1.4 21.9-9.2 21.9-9.2 7.8-3.1 11.4-6 17.7-11.7l6-5.5c2.9-2.6 3.3-7.1 1-10.2l-3.6-4.8-28.7 18.8c-2 1.3-12.4 8.1-16.8 11.1-4 2.7-.5 12.3 2.5 11.5z"/><path class="st9" d="M58.4 135.3l2.9.9c1 .4 2.4 1.7 2.1 2.8-.1.6-.4 1.1-.8 1.5l-1.4 1.4c-.6.6-1.1 1.4-1.3 2.3l-.5 1.2s-1.5 3.3-2.4 5c-.7 1.3-2.3 4.7-3.3 5.2-2 .9-5.3 1-6.7-3.8-1.5-4.8 2.4-12.1 2.4-12.1l.6-2.2 3.5-7.1c.5-1 1.5-1.6 2.5-2.1.7-.4 1.4-.8 2.3-.8.7-.3 1.3-.2 2.1-.1 0 0 2.4.7 2.1.9-.3.2-1.4.5-1.7.7-1.3.8-2.8 1.9-3.5 2.9-1.1 1.3-.5 3.1 1.1 3.4z"/><path class="st10" d="M47.5 152.3c1.1.7 2.2 1 2.9 1.6.9.9 1 1.8 2.3 1.9-2.1.4-5.3.6-6.7-4.1-.5-1.7-.4-4.9.6-7.7.7-1.9 3-5 3.7-6.8.6-1.5 1-3.9 2.2-6.3 2-4 3.6-3.8 5.4-3.8 1.4 0 2.7.1 2.7.1h.3c-2.4 2-4.2.8-5.5 2.1-2.1 2.1-2.9 6.5-3.8 8.6-.6 1.5-3.7 5.7-4.1 7.1-1 3.6-.9 6.8 0 7.3z"/><path class="st10" d="M58.4 135.4l2.9.9c1 .4 2.4 1.7 2.1 2.8-.1.6-.4 1.1-.8 1.5l-1.4 1.4c-1.9 1.7-2.1 7.6-5.3 3.4-2.5-3.5 1.8-10.1 2.5-10z"/><path d="M4.1 51.4c0-2.5 2.1-4.5 4.6-4.4l25 1.3 24.4 1.2 2.7.8c2.1.6 4.4.6 6.5 0l2.7-.8 24.5-1.2 25.2-1.3c2.3-.1 4.3 1.7 4.3 4.1v57.1c0 3-2.3 5.4-5.2 5.7l-48.5 4.3-.7.3c-3.3 1.5-7.1 1.6-10.3.1l-.8-.4-50.3-3.9c-2.3-.2-4-2.1-4-4.4V51.4z" fill="#3e328a"/><path class="st12" d="M58.3 49.6l2.7.8c2.1.6 4.4.6 6.5 0l2.7-.8.3 68.7-.7.3c-3.3 1.5-7.1 1.6-10.3.1l-.8-.4-.4-68.7z"/><path class="st4" d="M124 74.1l-3.2 4.7c-.2.3-.4.7-.4 1.1v.1c0 .8.2 1.6.6 2.3l1 1.7c.3.4.6.7 1.1.9.4.2.9 0 1.2-.4.3-.4.6-1 .7-1.1.1-.3.9-1.7 1.1-2.6.2-.7.2-3.8-.4-5.7-.3-1.3-1.7-1-1.7-1zM4 69l3.2 4.7c.2.3.4.7.4 1.1v.1c0 .8-.2 1.6-.6 2.3l-1 1.7c-.3.4-.6.7-1.1.9-.4.2-.9 0-1.2-.4-.3-.4-.6-1-.7-1.1-.2-.3-1-1.8-1.2-2.7-.2-.7-.2-3.8.4-5.7C2.6 68.7 4 69 4 69z"/><path class="st12" d="M87.4 108.8l20.8-1.7c1.4-.1 2.5-1.3 2.5-2.8v-8.6c0-1.6-1.4-2.9-3-2.8l-20.8 1.6c-1.4.1-2.6 1.3-2.6 2.8v8.7c.1 1.6 1.4 2.9 3.1 2.8zM30.6 72.5c.4.7.6 1.5.6 2.4 0 1.4-.4 2.5-1.3 3.3-.9.8-2 1.3-3.3 1.3s-2.5-.4-3.3-1.3c-.9-.8-1.3-1.9-1.3-3.3 0-.6.1-1.2.2-1.9.2-.6.5-1.5 1.1-2.8l2.6-6h4.8l-1.9 6.6c.7.5 1.3 1 1.8 1.7zm10.6 0c.4.7.6 1.5.6 2.4 0 1.4-.4 2.5-1.3 3.3-.9.8-2 1.3-3.3 1.3s-2.5-.4-3.3-1.3c-.9-.8-1.3-1.9-1.3-3.3 0-.6.1-1.2.2-1.9.2-.6.5-1.5 1.1-2.8l2.6-6h4.8l-1.9 6.6c.8.5 1.4 1 1.8 1.7z"/></g></svg>