<svg xmlns="http://www.w3.org/2000/svg" viewBox="0 0 153.8 264.9"><style>.st0{fill:#2c244a}.st1{fill:#f57b55}.st3{fill:#dc9b73}.st6{opacity:8.000000e-02;fill:#171570}.st7{fill:#d1af7c}.st11{fill:#f2f2f7}.st12{fill:#1e1e1e}.st19{fill:#212121}.st20{fill:#2b2b2b}</style><g id="Layer_2"><path class="st0" d="M62.9 45h-.4c.5-.7 0-2 0-3.2l-.9-2.8-2.2-8.7L52 18l1.5-4.6 8 .9 10.4 10.3 1.5 12.7-5.6 6.3-4.9 1.4z"/><path id="Резинка_1_" class="st1" d="M71.7 46.3l-4.8 1.4c-4.7 2.5-3.3.3-3.6-1.1-.1-.6-2.3-1.9-.1-2.7.6-.2 7-2.6 7-2.6 2.7-1 1.9 1.2 2 2 .1 1.5 2.8 2-.5 3z"/><path d="M72.1 21l-.1 1c-.1 1-.2 2.1.1 3.1.1.3.3.8.4.9.1.2.7 1.1.8 1.1.1 0 .9.1 1.3-.3.5-.4.5-1.2.6-1.3 0-.1 0-1.3.4-2.4.3-.8.4-1.2.1-2 0 0-.3-1.6-1.2-1.6H74c-.9-.1-1.8.6-1.9 1.5z" fill="#eaa178"/><g id="Рука_1_"><path class="st3" d="M30.3 48.7l-.6-19v-.5c0-.9.2-1.7.6-2.5l2.1-4.8c.4-1.1 1.3-2.2 1.7-2.8.1-.3.4-.4.7-.4 1.2-.1 4.2-.2 6.2-.1.8 0 1.1 1 .5 1.5l-1.2 1c-.4.3-.5.6-.4.8 0 .6 0 1.3-.2 1.9l-.4 1.4c-.4 1.4-1 2.8-1.7 4.2l-.7 1.4c-.2.4-.4.8-.3 1.3l1.9 16.5c.2 1.5-.9 2.8-2.4 3l-2.6.3c-1.3.2-2.5-.6-2.9-1.8l-.1-.4c-.1-.5-.2-.8-.2-1z"/><path d="M42.6 59.9l30.6-16.3 8.1 5.7c2 .1-.7 9.9-9.5 14.3-7.5 3.7-25.6 6.9-32.3 8-1.9.3-3.8.1-5.5-.7l-1.8-.8c-.9-.4-1.5-1.2-1.8-2.1-.5-1.6-.8-3.3-.8-5l-.1-17.6c0-.4.4-.7.8-.4l1.7 1.1c1.6 1 3.6.9 5-.2l1-.9c.3-.2.7 0 .7.3l1.9 13.2c.2.9 1.1 1.5 2 1.4z" fill="#d2c5ea"/></g><path fill="#d38b67" d="M64 35l2.1 7.5-.6 9.9H71l11.7-7.8L81 27.7z"/><path class="st3" d="M51.7 14.8l.1 5.9s-.3 4.9.2 7.3c.4 1.8 1.5 4.9 2.4 6.4.5.8 3.4 5.4 4 6.1 1.4 1.5 4.6 1 6-.1.8-.6 5.3-3.7 6-4.1.9-.6 2.8-1.5 3.8-1.9.8-.3 2.1-1.3 2.8-1.8 1-.7 2.9-2.2 3.5-3.2.4-.7 1.2-2 1.4-2.8.5-1.7.8-7.1.8-7.1l-3.4-8.3-7.5-4.3-12 .2-5.8 3.7-2.3 4zm-4.1 175.1l2.8 7.9h6.3l2.1-6.8-2-5z"/><ellipse class="st6" cx="47.6" cy="244.3" rx="32.1" ry="7.2"/><ellipse class="st6" cx="76.6" cy="244.3" rx="73.1" ry="16.4"/><path class="st7" d="M102.6 128.8L119 242.1c.1.4-.2.8-.6.9-.4.1-.9.1-1.3 0s-.7-.4-.8-.8L94.9 128.8h7.7z"/><path d="M79.8 130.9l6.3 97.6c0 .3-.2.6-.5.7l-.3.1c-.5.1-.9.1-1.4 0-.4-.1-.7-.5-.7-.9L72.1 131l7.7-.1z" fill="#c18d5d"/><path class="st7" d="M50.9 139.3l-13 97.4c-.1.4.2.8.6.9l.3.1c.3.1.6.1.9 0l.5-.1c.4-.1.8-.4.8-.9l17.4-97.3-7.5-.1zm25.4-1.2l-4.6 115.7c0 .2.1.4.3.5.9.4 2 .3 2.9-.1.2-.1.3-.2.3-.4L84 138.1h-7.7z"/><path d="M112.1 135.8c1.2-10-17.6-10.5-39.7-10.5s-40.2 4.7-40.2 10.5 18 10.5 40.2 10.5 39-4.7 39.7-10.5z" fill="#cecedb"/><ellipse cx="71.7" cy="133.4" rx="40.2" ry="10.5" fill="#f4f4f4"/><g id="Ноги"><path class="st3" d="M26.1 189.9l-1.6 6 5.1 4.6 5.8-2.6.7-7.1z"/><path class="st11" d="M35.8 194.1s-.9.6-1.1.9c-.3.5-.4 1.8-.8 2.3-.3.5-1.4 1.3-2 1.5-.5.1-1.6-.2-2.1-.4-.8-.3-1.6-1.2-1.7-2.1-.1-.4-.2-1.4-.3-1.8 0-1-1.4-1.2-1.9-1.4-.8-.3-2 .2-2.7.7-.5.3-1 1.5-1.4 2-.7.7-2.4 1.7-3.3 2.1-1.7.8-5.4 1.6-7.2 2.3-1.2.4-3.5 1.4-4.5 2.1-8.4 6.7 1.6 7.3 1.6 7.3 3.5.5 7 .3 10.5-.5 0 0 3.4-1.1 4.6-1.3 1-.2 4-.3 4-.3l5.2-1.5c1.8-.5 3.1-2.2 3.1-4.1v-7.8z"/><path class="st12" d="M3.5 206.4v1.3l.1.9c.1.8.7 1.5 1.4 1.8 0 0 1.3.7 1.8.8 1.7.4 5.3.6 7 .4 1.5-.1 4.4-.6 5.8-.9.8-.2 2.7-1 3.7-1.2 1.1-.3 3.6-.4 4.9-.6 1.2-.2 3.5-.7 4.5-1.1.7-.3 2.2-.8 2.7-1.4.2-.2.3-.6.4-.8.3-1.7 0-7.1 0-7.1s-1.8 1.2-2.2 1.7c-.7.9-1.2 3.1-1.9 4-.5.7-2.1 1.6-2.9 1.8-1.5.4-4.6.4-6.1.9-1 .3-2.8 1.3-3.8 1.6-1.2.4-3.7.7-5 .8-1.6.1-4.9 0-6.5-.2-.5 0-1.4-.3-1.8-.4-.4-.2-1.3-.5-1.6-.8-.2-.3-.5-1.5-.5-1.5zm24.7-10.2c0-.4-.2-1.4-.3-1.8 0-1-1.4-1.2-1.9-1.4-.8-.3-2 .2-2.7.7-.5.3-1 1.5-1.4 2-.7.7-2.4 1.7-3.3 2.1-1.7.8-5.4 1.6-7.2 2.3-1.2.4 8.8 3.2 13.7-.8 1.9-1.7 3.1-1.6 3.1-3.1z"/><path d="M91.5 129.8l-1.2 5.6-29.4.2-22.7 2.5 18.9 48.7c.3.8.1 1.8-.6 2.3l-.2.2c-1.8 1.5-4 2.4-6.4 2.6l-.6.1c-1.1.1-2.2-.5-2.7-1.5-3.8-8-19.8-41.6-20.3-43.4-.5-1.9-7.9-14.2 3.3-20.4.5-.3 8.4-5.4 16.7-9 10.3-4.5 21.5-7.6 22-7.9.9-.6 26.6-2.5 26.6-2.5l-3.4 22.5z" fill="#1c1c54"/><path d="M65.3 120.3c0-.2 2.9-8 2.9-8l5.1 2.9-8 5.1z" fill="#13133a"/><path d="M99.8 133c-2.7 2.4-6.2 3.9-9.8 4.2 0 0-17.4.6-19.5 1.4l-13.6 5.3c-2.8 1.1-5.1 3.4-6 6.3l-14.4 42c-.4 1.3-1.6 2.2-2.9 2.3l-.9.1c-1.8.2-3.7-.1-5.3-.9l-.5-.2c-1.3-.6-2-2-1.7-3.4 1.8-9.8 8.7-47.1 9.2-48.5.4-1.1.9-2.5 1.5-3.9 1.3-3.2 3.6-5.9 6.6-7.6l17.5-9.9s13.4-5.5 14.1-6.3c.7-.8 27.3-10.3 27.3-10.3l1.4 22.4c.1 2.6-1 5.2-3 7z" fill="#282870"/><path d="M93.4 121.6l2.9 6.7c.3.6.8 1.1 1.4 1.3l3.9 1.3.3-.5c.2-.3.3-.6.4-.9l.2-.6.2-.7c.1-.3.1-.6.1-1v-1.1l-.3-5.7v-.8c0-1.5-1.4-2.5-2.8-2.2l-4.5 1.1c-1.6.3-2.4 1.8-1.8 3.1z" fill="#363689"/></g><g id="Кроссы"><path class="st11" d="M48.3 196.5c.1-.9.6-3.7.6-3.7s1.2-1.4 1.8-1.6c.8-.3 2.8-.5 3.6 0 .8.5 1.1 3 2 3.3.3.1.8-.4.9-.7.3-.6.9-1.9.9-2.6 0-.9-.3-2.9-.3-2.9l.3.3c.8 1.1 1.8 3.2 2.4 5 .2.6.4 1.1.4 1.5.1.3 0 1 0 1.3-.2 1.4-1.2 4-1.6 5.3-.9 2.9-2.8 8.6-4.2 11.3-.6 1.1-2.1 3-3.1 3.7-.7.5-2.3 1-3.2 1.2-.9.2-2.9.3-3.8 0-.6-.2-1.6-1.1-1.8-1.7-.5-1.2-.5-3.5-.3-4.8.2-1.1 2-4.7 2-4.7l.9-2.3s1.6-3.1 1.9-4.3c.3-.8.4-2.7.6-3.6z"/><path class="st12" d="M59.5 191.4s-.8 1.8-.9 2.5c-.1.5-.1 1.7 0 2.2 0 .3.1.7.3 1.1.4 1.4.4 3-.1 4.4l-.9 3s-1.7 5.1-2.5 6.8c-.3.6-1.3 2.4-1.3 2.4s-2.2 3.1-4.1 3.5c-.7.2-2.8.8-5.5-.1-.1 0-1.4-1-1.4-1s.5 1.1 1.1 1.6c.6.5 1.4.9 1.8 1 1 .4 2.7.4 3.4.3.6 0 2-.3 2.9-.7.6-.3 1.6-1.4 2-1.9.5-.6 1.8-2.5 1.8-2.5l3-6.9 2.5-9v-1.8l-.4-1-1.7-3.9z"/><path class="st12" d="M48.3 196.5c.1-.9.2-2.8.6-3.7.3-.5 1.2-1.4 1.8-1.6.8-.3 2.8-.5 3.6 0 .4.3.7 1.1 1.1 1.8.3.6.7 1.3.9 1.7.2.6-.9 6.5-4.4 9.3-7.2 5.7-4.2-2.8-3.9-3.9 0-.8.1-2.7.3-3.6z"/></g><g id="Свитер"><path d="M65.8 46.8c.2-.3-.3 4.8.7 4.9 1.5.2 7.4-5.7 8.1-6.2 2.4-2.1 8.7-8.4 8.7-8.4s6 5.4 7.6 7.2c3.6 4.3 5.5 18.1 7.1 23.5 2.2 7.9 3 26.1 3.3 34.4.3 7.1 4.1 16 2.5 21.9-.9 3.4-10.1 3.8-18.3 1.1-4.7-1.6-10.2-6.1-10.9-6.7-2-1.6-5.6-3.6-9.6-4.6-2.4-.6-5.4-.3-6.8-1.1-1.2-.6.6-9.1 2.2-16 1.5-6.3 1.8-12.8 1.1-19.2l-3.3-17.1c-.3-1.6.1-3.3 1-4.7l6.6-9z" fill="#e7def2"/><path d="M73.1 113.9c2.1 1.4 5.9 4.1 8 5.6.8.6 2 .4 2.6-.5 1.1-1.9 3-12.1 2.9-15.1 0-.8-.6-1.6-1.4-1.8l-10.8-3.2c-.6-.2-1.3.2-1.5.8l-.9 3.2c-.3.9-.4 1.9-.4 2.9v5.4c.1 1.1.6 2.1 1.5 2.7z" fill="#cec1e0"/></g><g id="Бинокль"><path class="st19" d="M59.8 26.2L56 28.6c-1.2.8-2.7 1.2-4.1 1.2H36.1v-9.9H52c1.1 0 2.2.3 3.2.8l3 1.7 1.5.8.3.7c.2.5.2 1.1 0 1.6l-.2.7z"/><path class="st19" d="M28.6 19.9h22.2v9.9H28.6z"/><ellipse class="st20" cx="36.2" cy="24.9" rx="3" ry="4.9"/><ellipse class="st20" cx="28.6" cy="24.9" rx="3" ry="4.9"/><path d="M38.3 24.9c0 2.2-1.1 4-2.4 4-1.3 0 .7-2.5.7-4.7s-2-3.3-.7-3.3 2.4 1.8 2.4 4zm-7.6 0c0 2.2-1.1 4-2.4 4-1.3 0 .7-2.5.7-4.7s-2-3.3-.7-3.3 2.4 1.8 2.4 4z" fill="#494949"/></g><g id="Рука"><path class="st3" d="M46.2 51.4l-6-18.2c0-.1-.1-.3-.2-.6-.2-.7-.3-1.5-.2-2.3l.7-5.4c.1-1.6-1.1-3.3-1.4-3.7l-1-1.3h-.8v-1.1l.8-.3 6.5.2c.7 0 1.4.5 1.7 1.2l1.1 2.4c.3.7.5 1.5.5 2.3V26c0 1.5-.1 3-.4 4.5l-.3 1.5c-.1.4-.1.9.1 1.3l6.8 16.1c.4 1 0 2.1-1 2.5l-3.8 1.6c-.8.4-1.8.1-2.3-.7l-.7-1c.1-.1 0-.2-.1-.4z"/><path d="M62.9 58.9l18.5-14 5.8-2.4c1.9-.7 11.5 9.7 5.1 17-6.9 7.8-30.1 12.7-30.1 12.7-1 .1-2.1.2-3.2.1l-2-.1c-1 0-1.9-.5-2.5-1.2-1.1-1.3-1.9-2.8-2.6-4.3l-6.8-16.3c-.2-.4.2-.8.6-.7l2 .3c1.8.3 3.6-.5 4.6-2.1l.7-1.2c.2-.3.6-.3.8 0l6.8 11.4c.5.9 1.5 1.2 2.3.8z" fill="#ded3ef"/></g><path id="Волосы" class="st0" d="M54.3 13.7c1 .3 2.5 3 3.2 3.9.5.6 2.9 2.3 5.3 4.2 2.4 1.9 4.7 3.8 4.8 5 .2 1.9 3.5 2.8 4.4 5.9.9 3 5.5 2.5 5.9 4.3 0 .3.5 2.2 1 4.6.2 1.1 1 22.5 1.2 24.1 1.3 8.8 1.8 7.7 3.4 15.1.8 3.5 4.4 29.8 13.9 29.8 2.3 0 5.2-.5 5.2-2.5 0-5.8 1.6-14.4.8-23.1-.8-9-4.1-18-4.2-20.4-.5-9.7-7.1-16.4-7.9-22-.4-2.6-5.6-6.2-5.6-7.4 0-1.9 0-3.6.3-5 .3-1.3 0-2.8.1-4.4 0-2 .3-3.9.2-5.3-.1-1.6-1.2-2.9-1.5-4.2-.3-1.7-.3-3.4-.5-4.1-.3-.9-1.8-3.2-1.8-3.2L81 6.5c-.3-.5-.8-1-1.2-1.3l-2.4-1.7s-2-2-2.8-2.3C73.5.7 71 .7 69.8.5 68.4.4 66.4-.1 65 0c-.9.1-3.3 1-4.1 1.3-.8.3-2.1.7-3.2 1.5-.8.6-1.4 1.6-1.8 2-.5.5-1.5 1-2.1 1.8-.6.8-.9 2-1.3 2.6-.4.8-.8 2.6-.9 3.5-.1.9 0 9.1.3 6.7.1-1.3.8-2.1 1.1-3.1.8-2.4 1-2.7 1.3-2.6z"/><path id="Резинка" class="st1" d="M86.3 37.9l-4.8 1.4c-4.7 2.5-3.3.3-3.6-1.1-.1-.6-2.3-1.9-.1-2.7.6-.2 7-2.6 7-2.6 2.7-1 1.9 1.2 2 2 .2 1.6 2.9 2.1-.5 3z"/><path class="st12" d="M98.9 186v-2.1c-16.8 7.1-21.3 28-17.9 41.2l1.8 9 1.4 5.4 5.7-12.6-1.8-1.3c-2.5-1.8-4.7-8.4-4.9-11.4-.4-9.2 5.5-18.3 12.8-24.2l1.9.6 1-4.6z"/><path class="st20" d="M121.3 179.5c-3.6-1.2-15.6.2-19.3 1.2-1.8.5-4.2 1.8-6 5.6-1.4 3.2-4.4 23.5-4.3 30.4.1 8.9-8.6 18.5-8.4 19.7.7 4.1 2.2 7.7 3.9 9.4 1.9 1.8 10 3.5 10 3.5l14.5 2.4.6.1c1.3.2 2.7.2 4-.1l19.4-4.7c1.2-.3 2.2-1 2.9-2 1-1.5 1.4-3.2 1.5-4.9.4-9-.2-37.7-4.8-47.2-2.6-4.9-7.8-11.2-14-13.4z"/><path d="M116.4 199c-.1 8.9 0 28.8-1.2 41.6-.2 2-.4 3.9-.7 5.5-.7 4.2-8.3 4.8-8.3 4.8l6.3 1c1.3.2 2.7.2 4-.1l19.4-4.7c1.2-.3 2.2-1 2.9-2 1-1.5 1.5-3.2 1.5-4.9 0-8.9-.4-37.6-4.8-47.2-1.8-3.9-10.9-4-15.7-1-1.5.6-3.4 3.2-3.4 7z" fill="#474747"/><path class="st20" d="M129.1 245.7c-.3 0-.5-.3-.5-.7l-.1-11.8c0-.4.2-.7.5-.7s.5.3.5.7l.1 11.8c0 .4-.3.7-.5.7z" id="Layer_3"/></g></svg>