<svg xmlns="http://www.w3.org/2000/svg" viewBox="0 0 403 277.8"><path d="M32.2 35.3c1.4 2.2 2.1 4.8 2.1 7.8 0 4.3-1.3 7.8-4 10.4-2.7 2.7-6.1 4-10.4 4-4.2 0-7.7-1.4-10.4-4.1-2.8-2.7-4.1-6.1-4.1-10.4 0-2 .2-4 .8-6 .5-2 1.6-5 3.3-9l8.7-21.6H33l-6.6 23.8c2.4 1.2 4.4 2.9 5.8 5.1zm35.4 0c1.4 2.2 2.1 4.8 2.1 7.8 0 4.3-1.4 7.8-4.1 10.4-2.7 2.7-6.1 4-10.4 4-4.2 0-7.7-1.4-10.4-4.1-2.8-2.7-4.1-6.1-4.1-10.4 0-2 .2-4 .8-6 .5-2 1.6-5 3.3-9l8.7-21.6h14.9l-6.6 23.8c2.4 1.2 4.4 2.9 5.8 5.1zm68.1-15.8c-3-1.7-6.2-2.8-9.7-3.3v28h-8.1v-28c-3.5.5-6.7 1.6-9.7 3.3l-2.8-5.9c4.8-2.8 10.6-4.3 16.5-4.3s11.7 1.4 16.5 4.3l-2.7 5.9zm33.3 9.6v15.1h-7.8V30.3c0-4.3-2-6.2-5.5-6.2-3.8 0-6.5 2.3-6.5 7.1v13h-7.8V7.9h7.8v12.7c2.1-2.1 5.1-3.1 8.6-3.1 6.4 0 11.2 3.6 11.2 11.6zm27.7 6.8l4.2 4.4c-2.5 2.8-6.3 4.3-11.1 4.3-9.3 0-15.4-5.7-15.4-13.6 0-7.9 6.1-13.6 14.4-13.6 7.6 0 13.9 4.9 13.9 13.3l-19.9 3.8c1.1 2.6 3.6 3.9 7.2 3.9 2.8.1 4.8-.7 6.7-2.5zM182 30.3l13.1-2.5c-.8-2.7-3.1-4.5-6.4-4.5-3.9-.1-6.6 2.5-6.7 7zm37.4 11.5l2.6-5.5c2.4 1.5 6 2.5 9.4 2.5 3.6 0 5-.9 5-2.4 0-4.3-16.3.1-16.3-10.4 0-5 4.6-8.5 12.5-8.5 3.7 0 7.8.8 10.4 2.3l-2.6 5.4c-2.7-1.5-5.3-2-7.8-2-3.5 0-5 1.1-5 2.4 0 4.5 16.3.1 16.3 10.5 0 4.9-4.7 8.4-12.7 8.4-4.7.1-9.3-1.1-11.8-2.7zm45.4 1.1c-1.6 1.1-4 1.7-6.3 1.7-6.4 0-10.1-3.2-10.1-9.5V12h7.8v6.4h6.7v5.9h-6.7V35c0 2.3 1.2 3.5 3.3 3.5 1.2 0 2.3-.3 3.2-1l2.1 5.4zm30.9-25v26.4h-7.5v-3c-2 2.3-4.8 3.4-8.4 3.4-7.6 0-13.5-5.3-13.5-13.6s5.9-13.6 13.5-13.6c3.3 0 6.1 1 8.1 3.2v-2.8h7.8zM288 31c0-4.6-3-7.3-6.8-7.3-3.9 0-6.9 2.7-6.9 7.3s3 7.3 6.9 7.3c3.8 0 6.8-2.7 6.8-7.3zm31.5-13.5v7.1c-.6 0-1.1-.1-1.8-.1-4.3 0-7.2 2.3-7.2 7.3v12.4h-7.8V17.9h7.5v3.5c2-2.6 5.2-3.9 9.3-3.9zm20.9 25.4c-1.6 1.1-4 1.7-6.3 1.7-6.4 0-10.1-3.2-10.1-9.5V12h7.8v6.4h6.7v5.9h-6.7V35c0 2.3 1.2 3.5 3.3 3.5 1.2 0 2.3-.3 3.2-1l2.1 5.4zm17.6-33c0-2.4 2-4.3 4.8-4.3 2.9 0 4.9 1.8 4.9 4.1 0 2.5-2 4.4-4.9 4.4-2.9.1-4.8-1.8-4.8-4.2zm.9 8h7.8v26.4h-7.8V17.9zm12.5 23.9l2.6-5.5c2.4 1.5 6 2.5 9.4 2.5 3.6 0 5-.9 5-2.4 0-4.3-16.3.1-16.3-10.4 0-5 4.6-8.5 12.5-8.5 3.7 0 7.8.8 10.4 2.3l-2.6 5.4c-2.7-1.5-5.3-2-7.8-2-3.5 0-5 1.1-5 2.4 0 4.5 16.3.1 16.3 10.5 0 4.9-4.7 8.4-12.7 8.4-4.7.1-9.3-1.1-11.8-2.7zM152.2 90.9v14.6c0 7.7-4.5 12.2-12.5 12.2-3.7 0-6.8-1-8.9-3.7-2.1 2.6-5 3.7-8.9 3.7-8.1 0-12.5-4.5-12.5-12.2V90.9h7.8v14c0 4.4 1.5 6.4 4.8 6.4s4.9-2 4.9-6.4v-14h7.8v14c0 4.4 1.6 6.4 4.9 6.4 3.3 0 4.8-2 4.8-6.4v-14h7.8zm34.5 11.2v15.1h-7.8v-13.9c0-4.3-2-6.2-5.5-6.2-3.8 0-6.5 2.3-6.5 7.1v13h-7.8V80.9h7.8v12.7c2.1-2.1 5.1-3.1 8.6-3.1 6.4 0 11.2 3.6 11.2 11.6zm34.6-11.2v26.4h-7.5v-3c-2 2.3-4.8 3.4-8.4 3.4-7.6 0-13.5-5.3-13.5-13.6s5.8-13.6 13.5-13.6c3.3 0 6.1 1 8.1 3.2v-2.8h7.8zm-7.6 13.1c0-4.6-3-7.3-6.8-7.3-3.9 0-6.9 2.7-6.9 7.3s3 7.3 6.9 7.3c3.8 0 6.8-2.7 6.8-7.3zm42.3-1.9v15.1h-7.8v-13.9c0-4.3-2-6.2-5.5-6.2-3.8 0-6.5 2.3-6.5 7.1v13h-7.8V90.9h7.5V94c2.1-2.3 5.3-3.5 8.9-3.5 6.4 0 11.2 3.6 11.2 11.6zm23.2 13.8c-1.6 1.1-4 1.7-6.3 1.7-6.4 0-10.1-3.2-10.1-9.5V85h7.8v6.4h6.7v5.9h-6.7V108c0 2.3 1.2 3.5 3.3 3.5 1.2 0 2.3-.3 3.2-1l2.1 5.4zM107 187.8l2.6-5.5c2.4 1.5 6 2.5 9.4 2.5 3.6 0 5-.9 5-2.4 0-4.3-16.3.1-16.3-10.4 0-5 4.6-8.5 12.5-8.5 3.7 0 7.8.8 10.4 2.3l-2.6 5.4c-2.7-1.5-5.3-2-7.8-2-3.5 0-5 1.1-5 2.5 0 4.5 16.3.1 16.3 10.5 0 4.9-4.7 8.4-12.7 8.4-4.7 0-9.3-1.2-11.8-2.8zm45.4 1.1c-1.6 1.1-4 1.7-6.3 1.7-6.4 0-10.1-3.2-10.1-9.5V158h7.8v6.4h6.7v5.9h-6.7V181c0 2.3 1.2 3.5 3.3 3.5 1.2 0 2.3-.3 3.2-1l2.1 5.4zm1.5-11.9c0-7.9 6.3-13.6 14.8-13.6s14.8 5.6 14.8 13.6-6.2 13.6-14.8 13.6c-8.5 0-14.8-5.6-14.8-13.6zm21.7 0c0-4.6-3-7.3-6.8-7.3-3.9 0-6.9 2.7-6.9 7.3s3 7.3 6.9 7.3c3.8 0 6.8-2.7 6.8-7.3zm42.4 0c0 8.3-5.9 13.6-13.4 13.6-3.3 0-6.1-1-8.1-3.2v12.3h-7.8v-35.9h7.5v3c2-2.3 4.9-3.4 8.5-3.4 7.4.1 13.3 5.4 13.3 13.6zm-7.9 0c0-4.6-3-7.3-6.9-7.3s-6.9 2.7-6.9 7.3 3 7.3 6.9 7.3 6.9-2.7 6.9-7.3zm10.4 10.8l2.6-5.5c2.4 1.5 6 2.5 9.4 2.5 3.6 0 5-.9 5-2.4 0-4.3-16.3.1-16.3-10.4 0-5 4.6-8.5 12.5-8.5 3.7 0 7.8.8 10.4 2.3l-2.6 5.4c-2.7-1.5-5.3-2-7.8-2-3.5 0-5 1.1-5 2.5 0 4.5 16.3.1 16.3 10.5 0 4.9-4.7 8.4-12.7 8.4-4.7 0-9.3-1.2-11.8-2.8zm88.8-12.7v15.1h-7.8v-13.9c0-4.3-2-6.2-5.1-6.2-3.5 0-6 2.2-6 6.9v13.2h-7.8v-13.9c0-4.3-1.9-6.2-5.1-6.2-3.5 0-5.9 2.2-5.9 6.9v13.2h-7.8v-26.4h7.5v3c2-2.3 5-3.4 8.5-3.4 3.8 0 7 1.4 8.9 4.3 2.2-2.7 5.7-4.3 9.7-4.3 6.3.1 10.9 3.7 10.9 11.7zm5.3 1.9c0-7.9 6.3-13.6 14.8-13.6s14.8 5.6 14.8 13.6-6.2 13.6-14.8 13.6c-8.6 0-14.8-5.6-14.8-13.6zm21.6 0c0-4.6-3-7.3-6.8-7.3-3.9 0-6.9 2.7-6.9 7.3s3 7.3 6.9 7.3c3.9 0 6.8-2.7 6.8-7.3zm10.5 10.8l2.6-5.5c2.4 1.5 6 2.5 9.4 2.5 3.6 0 5-.9 5-2.4 0-4.3-16.3.1-16.3-10.4 0-5 4.6-8.5 12.5-8.5 3.7 0 7.8.8 10.4 2.3l-2.6 5.4c-2.7-1.5-5.3-2-7.8-2-3.5 0-5 1.1-5 2.5 0 4.5 16.3.1 16.3 10.5 0 4.9-4.7 8.4-12.7 8.4-4.7 0-9.3-1.2-11.8-2.8zm45.4 1.1c-1.6 1.1-4 1.7-6.3 1.7-6.4 0-10.1-3.2-10.1-9.5V158h7.8v6.4h6.7v5.9h-6.7V181c0 2.3 1.2 3.5 3.3 3.5 1.2 0 2.3-.3 3.2-1l2.1 5.4zM138.9 250c0 8.3-5.9 13.6-13.4 13.6-3.3 0-6.1-1-8.1-3.2v12.3h-7.8v-35.9h7.5v3c2-2.3 4.9-3.4 8.5-3.4 7.5.1 13.3 5.4 13.3 13.6zm-7.9 0c0-4.6-3-7.3-6.9-7.3s-6.9 2.7-6.9 7.3 3 7.3 6.9 7.3 6.9-2.7 6.9-7.3zm33.4 4.9l4.2 4.4c-2.5 2.8-6.3 4.3-11.1 4.3-9.3 0-15.4-5.7-15.4-13.6 0-7.9 6.1-13.6 14.4-13.6 7.6 0 13.9 4.9 13.9 13.3l-19.9 3.8c1.1 2.6 3.6 3.9 7.2 3.9 2.8.1 4.9-.7 6.7-2.5zm-14.6-5.6l13.1-2.5c-.8-2.7-3.1-4.5-6.4-4.5-3.9-.1-6.6 2.5-6.7 7zm23.8.7c0-7.9 6.3-13.6 14.8-13.6s14.8 5.6 14.8 13.6-6.2 13.6-14.8 13.6c-8.5 0-14.8-5.6-14.8-13.6zm21.7 0c0-4.6-3-7.3-6.8-7.3-3.9 0-6.9 2.7-6.9 7.3s3 7.3 6.9 7.3c3.8 0 6.8-2.7 6.8-7.3zm42.4 0c0 8.3-5.9 13.6-13.4 13.6-3.3 0-6.1-1-8.1-3.2v12.3h-7.8v-35.9h7.5v3c2-2.3 4.9-3.4 8.5-3.4 7.5.1 13.3 5.4 13.3 13.6zm-7.9 0c0-4.6-3-7.3-6.9-7.3s-6.9 2.7-6.9 7.3 3 7.3 6.9 7.3 6.9-2.7 6.9-7.3zm13.1 4.5v-27.6h7.8v27.2c0 2.3 1.2 3.5 3.4 3.5.8 0 1.8-.2 2.2-.5l.3 5.9c-1.3.4-2.7.6-4 .6-6.1 0-9.7-3.2-9.7-9.1zm37.3.4l4.2 4.4c-2.5 2.8-6.3 4.3-11.1 4.3-9.3 0-15.4-5.7-15.4-13.6 0-7.9 6.1-13.6 14.4-13.6 7.6 0 13.9 4.9 13.9 13.3l-19.9 3.8c1.1 2.6 3.6 3.9 7.2 3.9 2.8.1 4.9-.7 6.7-2.5zm-14.6-5.6l13.1-2.5c-.8-2.7-3.1-4.5-6.4-4.5-3.9-.1-6.6 2.5-6.7 7z" fill="#232642"/></svg>