<svg xmlns="http://www.w3.org/2000/svg" viewBox="0 0 207.3 55"><path d="M91.4 8c.9.8 1.4 2.1 1.4 3.8v6.4h-3.1v-1.4c-.6 1.1-1.8 1.6-3.4 1.6-.9 0-1.6-.1-2.3-.4-.6-.3-1.1-.7-1.5-1.2-.3-.6-.5-1.1-.5-1.8 0-1.1.4-1.9 1.2-2.5s2-.9 3.7-.9h2.6c0-.7-.2-1.3-.7-1.6-.4-.4-1.1-.6-2-.6-.6 0-1.2.1-1.8.3-.6.2-1.1.4-1.5.8l-1.2-2.3c.6-.4 1.4-.8 2.2-1 .9-.2 1.7-.4 2.7-.4 1.9 0 3.2.4 4.2 1.2zm-2.8 7.8c.4-.3.7-.6.9-1.1v-1.2h-2.2c-1.3 0-2 .4-2 1.3 0 .4.2.8.5 1s.8.4 1.4.4c.4 0 .9-.1 1.4-.4zm16.7-8.3c.9.5 1.5 1.2 2 2 .5.9.7 1.9.7 3.1s-.2 2.2-.7 3.1c-.5.9-1.2 1.6-2 2-.9.5-1.8.7-2.9.7-1.4 0-2.6-.5-3.4-1.4v5.3h-3.3V7h3.1v1.3c.8-1 2-1.5 3.5-1.5 1.1 0 2.1.2 3 .7zm-1.4 7.4c.5-.6.8-1.3.8-2.3s-.3-1.7-.8-2.3c-.5-.6-1.2-.9-2.1-.9s-1.5.3-2.1.9c-.5.6-.8 1.3-.8 2.3s.3 1.7.8 2.3c.5.6 1.2.9 2.1.9s1.6-.4 2.1-.9zM118.6 8c.9.8 1.4 2.1 1.4 3.8v6.4h-3.1v-1.4c-.6 1.1-1.8 1.6-3.4 1.6-.9 0-1.6-.1-2.3-.4-.6-.3-1.1-.7-1.5-1.2-.3-.5-.5-1.1-.5-1.8 0-1.1.4-1.9 1.2-2.5s2-.9 3.7-.9h2.6c0-.7-.2-1.3-.7-1.6-.4-.4-1.1-.6-2-.6-.6 0-1.2.1-1.8.3-.6.2-1.1.4-1.5.8l-1.2-2.3c.6-.4 1.4-.8 2.2-1 .9-.2 1.7-.4 2.7-.4 1.9 0 3.3.4 4.2 1.2zm-2.8 7.8c.4-.3.7-.6.9-1.1v-1.2h-2.2c-1.3 0-2 .4-2 1.3 0 .4.2.8.5 1s.8.4 1.4.4c.5 0 1-.1 1.4-.4zm9.5 1.9c-1-.5-1.7-1.2-2.2-2.1-.5-.9-.8-1.9-.8-3s.3-2.1.8-3c.5-.9 1.3-1.6 2.2-2.1 1-.5 2-.7 3.2-.7 1.2 0 2.2.2 3.1.7.9.5 1.5 1.2 1.9 2.1L131 11c-.6-1-1.4-1.6-2.5-1.6-.9 0-1.6.3-2.1.8-.6.6-.8 1.3-.8 2.3 0 1 .3 1.7.8 2.3.6.6 1.3.8 2.1.8 1.1 0 2-.5 2.5-1.6l2.5 1.4c-.4.9-1.1 1.6-1.9 2.1s-1.9.8-3.1.8c-1.1.1-2.2-.1-3.2-.6zm10.4-12.8c-.4-.3-.6-.8-.6-1.3s.2-1 .6-1.3c.4-.3.9-.5 1.5-.5s1.1.2 1.5.5.6.8.6 1.3-.2 1-.6 1.4c-.4.4-.9.5-1.5.5s-1.1-.3-1.5-.6zm-.2 2.1h3.3v11.3h-3.3V7zm13.6 10.7c-.3.2-.7.4-1.2.5-.5.1-1 .2-1.5.2-1.3 0-2.4-.3-3.1-1-.7-.7-1.1-1.7-1.1-3V9.7h-1.7V7.2h1.7V4.5h3.3v2.8h2.8v2.5h-2.8v4.6c0 .5.1.8.4 1.1.2.3.6.4 1 .4.5 0 1-.1 1.3-.4l.9 2.2zM159.6 8c.9.8 1.4 2.1 1.4 3.8v6.4h-3.1v-1.4c-.6 1.1-1.8 1.6-3.4 1.6-.9 0-1.6-.1-2.3-.4-.6-.3-1.1-.7-1.5-1.2-.3-.5-.5-1.1-.5-1.8 0-1.1.4-1.9 1.2-2.5s2-.9 3.7-.9h2.6c0-.7-.2-1.3-.7-1.6-.4-.4-1.1-.6-2-.6-.6 0-1.2.1-1.8.3-.6.2-1.1.4-1.5.8l-1.2-2.3c.6-.4 1.4-.8 2.2-1 .9-.2 1.7-.4 2.7-.4 1.9 0 3.2.4 4.2 1.2zm-2.8 7.8c.4-.3.7-.6.9-1.1v-1.2h-2.2c-1.3 0-2 .4-2 1.3 0 .4.2.8.5 1s.8.4 1.4.4c.4 0 .9-.1 1.4-.4zm14.4 1.9c-.3.2-.7.4-1.2.5-.5.1-1 .2-1.5.2-1.3 0-2.4-.3-3.1-1-.7-.7-1.1-1.7-1.1-3V9.7h-1.7V7.2h1.7V4.5h3.3v2.8h2.8v2.5h-2.8v4.6c0 .5.1.8.4 1.1.2.3.6.4 1 .4.5 0 1-.1 1.3-.4l.9 2.2zm2-12.8c-.4-.3-.6-.8-.6-1.3s.2-1 .6-1.3c.4-.3.9-.5 1.5-.5s1.1.2 1.5.5c.4.3.6.8.6 1.3s-.2 1-.6 1.4c-.4.4-.9.5-1.5.5s-1.1-.3-1.5-.6zm-.1 2.1h3.3v11.3h-3.3V7zm8.5 10.7c-.9-.5-1.7-1.2-2.2-2.1-.5-.9-.8-1.9-.8-3s.3-2.1.8-3c.5-.9 1.3-1.6 2.2-2.1.9-.5 2-.7 3.2-.7s2.3.2 3.2.7c.9.5 1.7 1.2 2.2 2.1.5.9.8 1.9.8 3s-.3 2.1-.8 3-1.3 1.6-2.2 2.1c-.9.5-2 .7-3.2.7s-2.3-.2-3.2-.7zm5.2-2.8c.5-.6.8-1.3.8-2.3s-.3-1.7-.8-2.3c-.5-.6-1.2-.9-2.1-.9s-1.5.3-2.1.9c-.5.6-.8 1.3-.8 2.3s.3 1.7.8 2.3c.5.6 1.2.9 2.1.9s1.6-.4 2.1-.9zM203.4 8c.9.8 1.3 2.1 1.3 3.7v6.5h-3.3v-6c0-.9-.2-1.6-.6-2-.4-.4-1-.7-1.7-.7-.8 0-1.5.3-2 .8s-.7 1.3-.7 2.3v5.6h-3.3V7h3.1v1.3c.4-.5 1-.8 1.6-1.1.6-.3 1.4-.4 2.1-.4 1.5 0 2.6.4 3.5 1.2zm-109 24.2v9.4c0 2.1-.5 3.6-1.6 4.6s-2.7 1.5-4.7 1.5c-1.1 0-2.1-.1-3.1-.4s-1.8-.7-2.4-1.2l1.3-2.4c.5.4 1.1.7 1.8.9.7.2 1.5.3 2.2.3 1.1 0 2-.3 2.5-.8s.8-1.3.8-2.3v-.5c-.9.9-2 1.4-3.6 1.4-1 0-2-.2-2.8-.7-.9-.5-1.5-1.1-2-1.9-.5-.8-.8-1.8-.8-2.9s.3-2 .8-2.9c.5-.8 1.2-1.5 2-1.9.9-.5 1.8-.7 2.8-.7 1.6 0 2.9.5 3.7 1.6v-1.4h3.1zm-4 7.2c.6-.5.8-1.2.8-2s-.3-1.5-.8-2c-.6-.5-1.3-.8-2.1-.8-.9 0-1.6.3-2.1.8-.6.5-.8 1.2-.8 2s.3 1.5.8 2c.6.5 1.3.8 2.1.8s1.5-.2 2.1-.8zm18.1-.7H100c.2.7.5 1.3 1.1 1.7.6.4 1.3.6 2.1.6.6 0 1.1-.1 1.6-.3.5-.2.9-.5 1.3-.8l1.7 1.9c-1.1 1.2-2.6 1.8-4.7 1.8-1.3 0-2.4-.2-3.4-.7-1-.5-1.7-1.2-2.3-2.1-.5-.9-.8-1.9-.8-3s.3-2.1.8-3c.5-.9 1.2-1.6 2.2-2.1.9-.5 1.9-.7 3.1-.7 1.1 0 2.1.2 3 .7.9.5 1.6 1.2 2.1 2 .5.9.8 1.9.8 3.1-.1.1-.1.4-.1.9zm-7.7-3.6c-.5.4-.8 1-.9 1.7h5.6c-.1-.7-.4-1.3-.9-1.7-.5-.4-1.1-.6-1.8-.6-.9 0-1.5.2-2 .6zm20.2-1.9c.9.8 1.3 2.1 1.3 3.7v6.5H119v-6c0-.9-.2-1.6-.6-2-.4-.4-1-.7-1.7-.7-.8 0-1.5.3-2 .8s-.7 1.3-.7 2.3v5.6h-3.3V32.2h3.1v1.3c.4-.5 1-.8 1.6-1.1.6-.3 1.4-.4 2.1-.4 1.5 0 2.6.4 3.5 1.2zm15.4 5.5h-8.5c.2.7.5 1.3 1.1 1.7.6.4 1.3.6 2.1.6.6 0 1.1-.1 1.6-.3.5-.2.9-.5 1.3-.8l1.7 1.9c-1.1 1.2-2.6 1.8-4.7 1.8-1.3 0-2.4-.2-3.4-.7-1-.5-1.7-1.2-2.3-2.1-.5-.9-.8-1.9-.8-3s.3-2.1.8-3c.5-.9 1.2-1.6 2.2-2.1.9-.5 1.9-.7 3.1-.7 1.1 0 2.1.2 3 .7.9.5 1.6 1.2 2.1 2 .5.9.8 1.9.8 3.1-.1.1-.1.4-.1.9zm-7.7-3.6c-.5.4-.8 1-.9 1.7h5.6c-.1-.7-.4-1.3-.9-1.7-.5-.4-1.1-.6-1.8-.6-.9 0-1.5.2-2 .6zm14.6-2.7c.7-.3 1.4-.4 2.3-.4v3h-.7c-.9 0-1.7.3-2.2.8-.5.5-.8 1.3-.8 2.4v5.3h-3.3V32.2h3.1v1.5c.4-.6.9-1 1.6-1.3zm12.8.8c.9.8 1.4 2.1 1.4 3.8v6.4h-3.1V42c-.6 1.1-1.8 1.6-3.4 1.6-.9 0-1.6-.1-2.3-.4-.6-.3-1.1-.7-1.5-1.2-.3-.5-.5-1.1-.5-1.8 0-1.1.4-1.9 1.2-2.5s2-.9 3.7-.9h2.6c0-.7-.2-1.3-.7-1.6-.4-.4-1.1-.6-2-.6-.6 0-1.2.1-1.8.3-.6.2-1.1.4-1.5.8l-1.2-2.3c.6-.4 1.4-.8 2.2-1 .9-.2 1.7-.4 2.7-.4 1.9 0 3.3.4 4.2 1.2zm-2.8 7.8c.4-.3.7-.6.9-1.1v-1.2H152c-1.3 0-2 .4-2 1.3 0 .4.2.8.5 1s.8.4 1.4.4c.5 0 1-.1 1.4-.4zm14.4 1.9c-.3.2-.7.4-1.2.5-.5.1-1 .2-1.5.2-1.3 0-2.4-.3-3.1-1-.7-.7-1.1-1.7-1.1-3V35h-1.7v-2.5h1.7v-2.8h3.3v2.8h2.8V35h-2.8v4.6c0 .5.1.8.4 1.1.2.3.6.4 1 .4.5 0 1-.1 1.3-.4l.9 2.2zm3.7 0c-.9-.5-1.7-1.2-2.2-2.1-.5-.9-.8-1.9-.8-3s.3-2.1.8-3c.5-.9 1.3-1.6 2.2-2.1.9-.5 2-.7 3.2-.7 1.2 0 2.3.2 3.2.7.9.5 1.7 1.2 2.2 2.1.5.9.8 1.9.8 3s-.3 2.1-.8 3c-.5.9-1.3 1.6-2.2 2.1-.9.5-2 .7-3.2.7-1.2 0-2.2-.2-3.2-.7zm5.3-2.8c.5-.6.8-1.3.8-2.3s-.3-1.7-.8-2.3c-.5-.6-1.2-.9-2.1-.9-.8 0-1.5.3-2.1.9-.5.6-.8 1.3-.8 2.3s.3 1.7.8 2.3c.5.6 1.2.9 2.1.9.9-.1 1.5-.4 2.1-.9zm11-7.7c.7-.3 1.4-.4 2.3-.4v3h-.7c-.9 0-1.7.3-2.2.8-.5.5-.8 1.3-.8 2.4v5.3H183V32.2h3.1v1.5c.4-.6.9-1 1.6-1.3zM29.2 30.5c1.4 2.2 2.1 4.8 2.1 7.8 0 4.3-1.3 7.8-4 10.4-2.7 2.7-6.1 4-10.4 4-4.2 0-7.7-1.4-10.4-4.1-2.8-2.6-4.1-6.1-4.1-10.3 0-2 .2-4 .8-6 .5-2 1.6-5 3.3-9l8.7-21.6H30l-6.6 23.8c2.4 1.2 4.4 2.9 5.8 5zm35.4 0c1.4 2.2 2.1 4.8 2.1 7.8 0 4.3-1.4 7.8-4.1 10.4-2.7 2.7-6.1 4-10.4 4-4.2 0-7.7-1.4-10.4-4.1-2.8-2.7-4.1-6.1-4.1-10.4 0-2 .2-4 .8-6 .5-2 1.6-5 3.3-9l8.7-21.6h14.9l-6.6 23.8c2.4 1.3 4.4 3 5.8 5.1z" fill="#232642"/></svg>